<svg width="24" height="24" viewBox="0 0 24 24" fill="none" xmlns="http://www.w3.org/2000/svg">
<path d="M14.5381 3.19922C15.4884 3.19921 16.2451 3.19918 16.8555 3.24902C17.4823 3.30024 18.0174 3.40784 18.5068 3.65723C18.9911 3.904 19.4204 4.24081 19.7725 4.64648C20.0255 4.93847 19.994 5.38049 19.7021 5.63379C19.4102 5.88706 18.9682 5.85542 18.7148 5.56348C18.4801 5.29303 18.1939 5.06878 17.8711 4.9043C17.6119 4.77226 17.2822 4.68868 16.7422 4.64453C16.1937 4.59972 15.4915 4.59863 14.5 4.59863H9.5C8.50844 4.59863 7.80634 4.59972 7.25781 4.64453C6.7178 4.68868 6.38809 4.77224 6.12891 4.9043C5.60206 5.17274 5.17372 5.60108 4.90527 6.12793C4.77322 6.38712 4.68966 6.71682 4.64551 7.25684C4.60069 7.80537 4.59961 8.50745 4.59961 9.49902V14.499C4.59961 15.4906 4.60069 16.1927 4.64551 16.7412C4.68966 17.2812 4.77322 17.6109 4.90527 17.8701C5.17372 18.397 5.60206 18.8253 6.12891 19.0938C6.38809 19.2258 6.7178 19.3094 7.25781 19.3535C7.80634 19.3983 8.50844 19.3994 9.5 19.3994H14.5C15.4915 19.3994 16.1937 19.3983 16.7422 19.3535C17.2822 19.3094 17.6119 19.2258 17.8711 19.0938C18.3979 18.8253 18.8263 18.397 19.0947 17.8701C19.2194 17.6255 19.3009 17.3173 19.3467 16.8281C19.3827 16.4432 19.7245 16.1603 20.1094 16.1963C20.4942 16.2324 20.7772 16.5741 20.7412 16.959C20.6867 17.5411 20.5775 18.0433 20.3418 18.5059C19.9392 19.2959 19.2969 19.9382 18.5068 20.3408C18.0174 20.5902 17.4823 20.6978 16.8555 20.749C16.2451 20.7989 15.4884 20.7988 14.5381 20.7988H9.46191C8.51157 20.7988 7.75492 20.7989 7.14453 20.749C6.51766 20.6978 5.98266 20.5902 5.49316 20.3408C4.70307 19.9382 4.06084 19.296 3.6582 18.5059C3.40879 18.0164 3.30122 17.4814 3.25 16.8545C3.20015 16.2441 3.20019 15.4875 3.2002 14.5371V9.46094C3.20019 8.51058 3.20015 7.75395 3.25 7.14355C3.30122 6.51667 3.40879 5.98168 3.6582 5.49219C4.06084 4.7021 4.70307 4.05986 5.49316 3.65723C5.98266 3.40782 6.51766 3.30024 7.14453 3.24902C7.75492 3.19917 8.51157 3.19921 9.46191 3.19922H14.5381Z" fill="#17191C"/>
<path d="M20.1006 8.19922C20.487 8.19948 20.7998 8.51298 20.7998 8.89941V10.999C20.7998 12.49 19.5915 13.699 18.1006 13.6992H11.123C11.0416 13.6992 10.9681 13.7487 10.9375 13.8242C10.907 13.8997 10.925 13.9863 10.9834 14.043L12.5869 15.5957C12.8646 15.8647 12.8715 16.3083 12.6025 16.5859C12.3335 16.8634 11.8909 16.8705 11.6133 16.6016L8.41309 13.502C8.277 13.3701 8.20022 13.1885 8.2002 12.999C8.20019 12.8095 8.27699 12.628 8.41309 12.4961L11.6133 9.39551C11.8908 9.12694 12.3336 9.13397 12.6025 9.41113C12.8715 9.6888 12.8646 10.1324 12.5869 10.4014L10.9834 11.9551C10.9249 12.0118 10.9069 12.0983 10.9375 12.1738C10.968 12.2492 11.0408 12.2987 11.1221 12.2988H18.1006C18.8183 12.2986 19.4003 11.7168 19.4004 10.999V8.89941C19.4004 8.51285 19.714 8.19927 20.1006 8.19922Z" fill="#17191C"/>
</svg>
