<svg width="40" height="40" viewBox="0 0 40 40" fill="none" xmlns="http://www.w3.org/2000/svg">
<path d="M28.3888 9.99944C30.936 9.99944 31.8597 10.2647 32.7909 10.7627C33.7221 11.2607 34.453 11.9915 34.951 12.9227C35.449 13.854 35.7142 14.7776 35.7142 17.3248V26.9598C35.7142 29.507 35.449 30.4306 34.951 31.3619C34.453 32.2931 33.7221 33.0239 32.7909 33.5219C31.8597 34.0199 30.936 34.2852 28.3888 34.2852H11.611C9.06383 34.2852 8.14016 34.0199 7.20894 33.5219C6.27773 33.0239 5.5469 32.2931 5.04888 31.3619C4.57707 30.4797 4.31421 29.6042 4.28784 27.3487L4.28564 17.3248C4.28564 14.7776 4.55086 13.854 5.04888 12.9227C5.5469 11.9915 6.27773 11.2607 7.20894 10.7627C8.09115 10.2909 8.96658 10.028 11.2221 10.0016L28.3888 9.99944ZM28.5699 20.5909L21.5152 27.6474C20.7306 28.4319 19.4891 28.4809 18.6474 27.7945L18.4847 27.6474L15.7142 24.8766L9.31013 31.2814C9.73806 31.3755 10.318 31.4188 11.2716 31.4267L28.3888 31.428C30.2798 31.428 30.8557 31.3168 31.4435 31.0025C31.8768 30.7707 32.1998 30.4477 32.4315 30.0144L32.5401 29.792C32.7554 29.3 32.8442 28.7063 32.8557 27.2992L32.8556 24.8766L28.5699 20.5909ZM28.7283 12.8579H11.2716L10.6773 12.8689C9.50366 12.9054 9.03395 13.0267 8.55637 13.2821C8.12306 13.5139 7.80008 13.8369 7.56835 14.2702L7.45981 14.4926C7.24449 14.9846 7.1557 15.5783 7.14411 16.9854V27.2992L7.15512 27.8935C7.17427 28.509 7.21674 28.9309 7.28965 29.2619L14.199 22.3515C14.9835 21.567 16.225 21.5179 17.0667 22.2044L17.2294 22.3515L19.9999 25.1223L27.0561 18.0658C27.8407 17.2813 29.0822 17.2322 29.9238 17.9187L30.0866 18.0658L32.8571 20.8352V17.3248C32.8571 15.4338 32.7459 14.858 32.4315 14.2702C32.1998 13.8369 31.8768 13.5139 31.4435 13.2821L31.221 13.1736C30.729 12.9583 30.1354 12.8695 28.7283 12.8579ZM12.1428 15.7137C13.3263 15.7137 14.2856 16.6731 14.2856 17.8566C14.2856 19.0401 13.3263 19.9994 12.1428 19.9994C10.9593 19.9994 9.99993 19.0401 9.99993 17.8566C9.99993 16.6731 10.9593 15.7137 12.1428 15.7137ZM24.9087 4.28516C26.1823 4.28516 26.6441 4.41776 27.1097 4.66677C27.5753 4.91578 27.9407 5.2812 28.1897 5.74681C28.3773 6.09756 28.4989 6.44617 28.5474 7.14127H11.4525C11.501 6.44617 11.6225 6.09756 11.8101 5.74681C12.0591 5.2812 12.4245 4.91578 12.8902 4.66677C13.3558 4.41776 13.8176 4.28516 15.0912 4.28516H24.9087Z" fill="#5159F6"/>
</svg>
