<svg width="22" height="22" viewBox="0 0 22 22" fill="none" xmlns="http://www.w3.org/2000/svg">
<path d="M10.8 0.900391C16.2676 0.900391 20.7004 5.33316 20.7004 10.8008C20.7004 16.2684 16.2676 20.7012 10.8 20.7012C5.33238 20.7012 0.899612 16.2684 0.899612 10.8008C0.899612 5.33316 5.33238 0.900391 10.8 0.900391Z" fill="#5159F6" stroke="#F0F2F5" stroke-width="1.8"/>
<path d="M10.1334 5.51464V4.16797C8.79337 4.3013 7.57337 4.83464 6.5867 5.6413L7.53337 6.59464C8.27337 6.0213 9.16004 5.63464 10.1334 5.51464ZM6.59337 7.53464L5.64004 6.58797C4.83337 7.57464 4.30004 8.79463 4.1667 10.1346H5.51337C5.63337 9.1613 6.02004 8.27464 6.59337 7.53464ZM4.1667 11.468C4.30004 12.808 4.83337 14.028 5.64004 15.0146L6.59337 14.0613C6.02004 13.328 5.63337 12.4413 5.51337 11.468H4.1667ZM10.1334 17.4346V16.088C9.16004 15.968 8.27337 15.5813 7.53337 15.008L6.5867 15.9613C7.57337 16.768 8.80004 17.3013 10.1334 17.4346ZM11.5 4.16797C14.8534 4.5213 17.4667 7.3613 17.4667 10.8013C17.4667 14.2413 14.8534 17.0813 11.5 17.4346V16.088C14.1134 15.7413 16.1334 13.5013 16.1334 10.8013C16.1334 8.1013 14.1134 5.8613 11.5 5.51464V4.16797Z" fill="white"/>
<path d="M10.7424 12.9272C10.7424 13.3738 10.9797 13.629 11.402 13.629C11.8203 13.629 12.0576 13.3778 12.0576 12.9272V8.77611C12.0576 8.28963 11.7439 7.97461 11.2733 7.97461C11.0038 7.97461 10.7182 8.06632 10.4045 8.2657L9.74891 8.70035C9.51161 8.84789 9.39095 9.02334 9.39095 9.21873C9.39095 9.48191 9.58401 9.67331 9.84947 9.67331C9.9822 9.67331 10.0948 9.63344 10.304 9.50185L10.7263 9.21873H10.7424V12.9272Z" fill="white"/>
</svg>
