<svg width="200" height="110" viewBox="0 0 200 110" fill="none" xmlns="http://www.w3.org/2000/svg">
<path d="M79.5119 47.8105C72.8859 58.9025 62.5469 69.7505 56.1759 74.3825C41.5709 85.0025 7.81486 99.9225 5.56986 91.1845C3.67486 83.8155 41.2099 68.8765 76.9899 68.8765C94.3389 68.8765 109.207 70.8065 121.501 73.7245" stroke="#D0D8E3" stroke-width="2" stroke-miterlimit="10"/>
<path d="M153.5 104C165.926 104 176 93.9264 176 81.5C176 69.0736 165.926 59 153.5 59C141.074 59 131 69.0736 131 81.5C131 93.9264 141.074 104 153.5 104Z" fill="#FFB73D"/>
<path d="M146.748 71.9296L149.054 74.2366C149.055 74.2365 149.055 74.2363 149.056 74.2362L151.033 76.2122C151.032 76.2124 151.032 76.2126 151.032 76.2127L153.403 78.5856H153.405L156.416 81.5942C156.416 81.5958 156.416 81.5973 156.416 81.5989L158.786 83.9696C158.787 83.9684 158.787 83.9672 158.788 83.966L161.452 86.6315C161.451 86.6321 161.451 86.6328 161.45 86.6334L163.066 88.2512C163.522 88.7069 163.522 89.4456 163.066 89.9012C162.646 90.3217 161.984 90.3541 161.526 89.9983L161.416 89.9011L159.504 87.9894C157.802 88.9766 155.774 89.6664 153.5 89.6664C146.5 89.6664 141.833 83.133 141.833 81.4997C141.833 80.4608 143.721 77.4396 146.897 75.3781L145.098 73.5796C144.643 73.1239 144.643 72.3852 145.099 71.9296C145.554 71.474 146.293 71.474 146.748 71.9296ZM147.667 81.4997C147.667 84.7214 150.278 87.333 153.5 87.333C154.988 87.333 156.346 86.776 157.376 85.8591L155.306 83.7908C154.81 84.1826 154.183 84.4164 153.501 84.4164C151.89 84.4164 150.584 83.1105 150.584 81.4997C150.584 80.8176 150.819 80.1901 151.211 79.6934L149.141 77.6236C148.224 78.6541 147.667 80.0118 147.667 81.4997ZM153.5 73.333C160.5 73.333 165.167 79.8664 165.167 81.4997C165.167 82.1433 164.442 83.5477 163.136 85.0135L159.326 81.2044C159.177 78.2177 156.782 75.8225 153.795 75.6737L151.613 73.4928C152.221 73.3893 152.85 73.333 153.5 73.333Z" fill="white"/>
<path d="M108 88C87.566 88 71 71.434 71 51C71 30.566 87.566 14 108 14C128.434 14 145 30.566 145 51C145 71.434 128.434 88 108 88Z" fill="#7A6EF6"/>
<path fill-rule="evenodd" clip-rule="evenodd" d="M104.138 31.574C105.389 31.3267 106.68 31.1973 108 31.1973C109.32 31.1973 110.612 31.3267 111.862 31.574C112.838 31.767 113.472 32.7139 113.279 33.6891C113.086 34.6643 112.139 35.2985 111.164 35.1056C110.142 34.9035 109.085 34.7973 108 34.7973C106.916 34.7973 105.859 34.9035 104.837 35.1056C103.862 35.2985 102.915 34.6643 102.722 33.6891C102.529 32.7139 103.163 31.767 104.138 31.574ZM99.4951 35.0277C100.048 35.8538 99.8268 36.9718 99.0008 37.5248C98.1172 38.1163 97.2948 38.7926 96.5453 39.5421C95.7958 40.2916 95.1195 41.114 94.528 41.9976C93.9749 42.8237 92.8569 43.045 92.0309 42.492C91.2048 41.9389 90.9834 40.8209 91.5365 39.9949C92.2591 38.9155 93.0849 37.9114 93.9997 36.9966C94.9145 36.0818 95.9186 35.256 96.998 34.5333C97.8241 33.9803 98.9421 34.2016 99.4951 35.0277ZM116.506 35.0277C117.059 34.2016 118.177 33.9803 119.003 34.5333C120.082 35.256 121.086 36.0818 122.001 36.9966C122.916 37.9114 123.742 38.9155 124.464 39.9949C125.017 40.8209 124.796 41.9389 123.97 42.492C123.144 43.045 122.026 42.8237 121.473 41.9976C120.881 41.114 120.205 40.2916 119.456 39.5421C118.706 38.7926 117.884 38.1163 117 37.5248C116.174 36.9718 115.953 35.8538 116.506 35.0277ZM125.309 45.7188C126.284 45.5259 127.231 46.1601 127.424 47.1353C127.671 48.3858 127.8 49.6773 127.8 50.9973C127.8 52.3172 127.671 53.6087 127.424 54.8592C127.231 55.8345 126.284 56.4686 125.309 56.2757C124.333 56.0828 123.699 55.1359 123.892 54.1606C124.094 53.139 124.2 52.0814 124.2 50.9973C124.2 49.9131 124.094 48.8556 123.892 47.8339C123.699 46.8587 124.333 45.9117 125.309 45.7188ZM90.6923 45.7188C91.6675 45.9117 92.3017 46.8587 92.1088 47.8339C91.9067 48.8556 91.8004 49.9131 91.8004 50.9973C91.8004 52.0814 91.9067 53.139 92.1088 54.1606C92.3017 55.1359 91.6675 56.0828 90.6923 56.2757C89.7171 56.4686 88.7701 55.8345 88.5772 54.8592C88.3299 53.6087 88.2004 52.3172 88.2004 50.9973C88.2004 49.6773 88.3299 48.3858 88.5772 47.1353C88.7701 46.1601 89.7171 45.5259 90.6923 45.7188ZM92.0309 59.5026C92.8569 58.9495 93.9749 59.1709 94.528 59.9969C95.1195 60.8805 95.7958 61.7029 96.5453 62.4524C97.2948 63.2019 98.1172 63.8782 99.0008 64.4697C99.8268 65.0228 100.048 66.1408 99.4951 66.9668C98.9421 67.7929 97.8241 68.0143 96.998 67.4612C95.9186 66.7386 94.9145 65.9128 93.9997 64.998C93.0849 64.0832 92.2591 63.0791 91.5365 61.9997C90.9834 61.1736 91.2048 60.0556 92.0309 59.5026ZM123.97 59.5026C124.796 60.0556 125.017 61.1736 124.464 61.9997C123.742 63.0791 122.916 64.0832 122.001 64.998C121.086 65.9128 120.082 66.7386 119.003 67.4612C118.177 68.0143 117.059 67.7929 116.506 66.9668C115.953 66.1408 116.174 65.0228 117 64.4697C117.884 63.8782 118.706 63.2019 119.456 62.4524C120.205 61.7029 120.881 60.8805 121.473 59.9969C122.026 59.1709 123.144 58.9495 123.97 59.5026ZM102.722 68.3054C102.915 67.3302 103.862 66.696 104.837 66.8889C105.859 67.091 106.916 67.1973 108 67.1973C109.085 67.1973 110.142 67.091 111.164 66.8889C112.139 66.696 113.086 67.3302 113.279 68.3054C113.472 69.2806 112.838 70.2276 111.862 70.4205C110.612 70.6679 109.32 70.7973 108 70.7973C106.68 70.7973 105.389 70.6679 104.138 70.4205C103.163 70.2276 102.529 69.2806 102.722 68.3054Z" fill="white"/>
<path d="M107.827 57.3753C107.827 58.7151 108.539 59.4807 109.806 59.4807C111.061 59.4807 111.773 58.727 111.773 57.3753V44.9221C111.773 43.4626 110.832 42.5176 109.42 42.5176C108.611 42.5176 107.755 42.7927 106.813 43.3909L104.847 44.6948C104.135 45.1374 103.773 45.6638 103.773 46.2499C103.773 47.0395 104.352 47.6137 105.148 47.6137C105.546 47.6137 105.884 47.4941 106.512 47.0993L107.779 46.2499H107.827V57.3753Z" fill="white"/>
<path d="M84.4998 22.8106C82.4828 18.8926 77.9788 16.3506 70.0018 15.4726C54.5038 13.7656 42.1748 21.0386 43.4938 26.7466C46.5258 39.8666 99.8998 37.5236 139.5 11.9766" stroke="url(#paint0_linear_17312_69172)" stroke-width="2" stroke-miterlimit="10"/>
<path d="M150.507 5.58515C150.622 5.3378 150.669 5.06463 150.645 4.79308C150.62 4.52154 150.525 4.26119 150.368 4.03822C150.211 3.81525 149.998 3.63751 149.751 3.52287C149.504 3.40823 149.23 3.36073 148.959 3.38515L136.158 4.53115C135.886 4.55559 135.626 4.65116 135.403 4.80826C135.179 4.96535 135.002 5.17842 134.887 5.42603C134.772 5.67365 134.725 5.94709 134.749 6.21885C134.774 6.49061 134.87 6.75111 135.027 6.97415L142.438 17.4621C143.127 18.4381 144.614 18.3021 145.116 17.2191L150.507 5.58515Z" fill="#D0D8E3"/>
<defs>
<linearGradient id="paint0_linear_17312_69172" x1="43.3968" y1="23.2796" x2="139.5" y2="23.2796" gradientUnits="userSpaceOnUse">
<stop offset="0.001" stop-color="#D0D8E3"/>
<stop offset="1" stop-color="#D0D8E3"/>
</linearGradient>
</defs>
</svg>
