<svg width="40" height="40" viewBox="0 0 40 40" fill="none" xmlns="http://www.w3.org/2000/svg">
<path d="M20.0002 20.714C25.5174 20.714 29.2859 23.2264 29.2859 27.1426C29.2859 29.8998 27.4517 31.4283 25.0002 31.4283H15.0002C12.5487 31.4283 10.7145 29.8998 10.7145 27.1426C10.7145 23.2264 14.483 20.714 20.0002 20.714ZM31.4288 20.714C35.3513 20.714 37.8574 23.0808 37.8574 26.0711C37.8574 28.4889 36.0108 29.9997 33.9288 29.9997H32.8574C32.0684 29.9997 31.4288 29.3601 31.4288 28.5711C31.4288 27.7822 32.0684 27.1426 32.8574 27.1426H33.9288C34.5451 27.1426 35.0002 26.7703 35.0002 26.0711C35.0002 24.6964 33.8087 23.5711 31.4288 23.5711C30.6398 23.5711 30.0002 22.9316 30.0002 22.1426C30.0002 21.3536 30.6398 20.714 31.4288 20.714ZM8.57164 20.714C9.36062 20.714 10.0002 21.3536 10.0002 22.1426C10.0002 22.9316 9.36062 23.5711 8.57164 23.5711C6.19168 23.5711 5.00021 24.6964 5.00021 26.0711C5.00021 26.7703 5.45527 27.1426 6.07164 27.1426H7.14307C7.93204 27.1426 8.57164 27.7822 8.57164 28.5711C8.57164 29.3601 7.93204 29.9997 7.14307 29.9997H6.07164C3.98959 29.9997 2.14307 28.4889 2.14307 26.0711C2.14307 23.0808 4.64908 20.714 8.57164 20.714ZM20.0002 23.5711C15.8745 23.5711 13.5716 25.1064 13.5716 27.1426C13.5716 28.1949 14.0232 28.5711 15.0002 28.5711H25.0002C25.9773 28.5711 26.4288 28.1949 26.4288 27.1426C26.4288 25.1064 24.1259 23.5711 20.0002 23.5711ZM28.5716 8.57115C31.3331 8.57115 33.5716 10.8097 33.5716 13.5711C33.5716 16.3326 31.3331 18.5711 28.5716 18.5711C27.7827 18.5711 27.1431 17.9316 27.1431 17.1426C27.1431 16.3536 27.7827 15.714 28.5716 15.714L28.778 15.7042C29.8647 15.6004 30.7145 14.685 30.7145 13.5711C30.7145 12.3877 29.7551 11.4283 28.5716 11.4283L28.405 11.4187C27.6946 11.3362 27.1431 10.7323 27.1431 9.99972C27.1431 9.21074 27.7827 8.57115 28.5716 8.57115ZM11.4288 8.57115C12.2178 8.57115 12.8574 9.21074 12.8574 9.99972C12.8574 10.7323 12.3059 11.3362 11.5954 11.4187L11.4288 11.4283C10.2453 11.4283 9.28592 12.3877 9.28592 13.5711C9.28592 14.685 10.1358 15.6004 11.2224 15.7042L11.4288 15.714C12.2178 15.714 12.8574 16.3536 12.8574 17.1426C12.8574 17.9316 12.2178 18.5711 11.4288 18.5711C8.66736 18.5711 6.42878 16.3326 6.42878 13.5711C6.42878 10.8097 8.66736 8.57115 11.4288 8.57115ZM20.0002 7.14258C23.1561 7.14258 25.7145 9.70095 25.7145 12.8569C25.7145 16.0128 23.1561 18.5711 20.0002 18.5711C16.8443 18.5711 14.2859 16.0128 14.2859 12.8569C14.2859 9.70095 16.8443 7.14258 20.0002 7.14258ZM20.0002 9.99972C18.4223 9.99972 17.1431 11.2789 17.1431 12.8569C17.1431 14.4348 18.4223 15.714 20.0002 15.714C21.5782 15.714 22.8574 14.4348 22.8574 12.8569C22.8574 11.2789 21.5782 9.99972 20.0002 9.99972Z" fill="#5159F6"/>
</svg>
