<svg width="40" height="40" viewBox="0 0 40 40" fill="none" xmlns="http://www.w3.org/2000/svg">
<path d="M17.9855 24.0422C17.4284 24.5993 16.5141 24.5993 15.957 24.0422C13.1712 21.2565 13.1712 16.7279 15.957 13.9422L23.4427 6.45647C26.2284 3.67076 30.757 3.67076 33.5427 6.45647C36.3284 9.24219 36.3284 13.7708 33.5427 16.5565L31.4914 18.6078C30.9348 19.1643 30.0327 19.1651 29.4752 18.6095C28.9179 18.0541 28.9161 17.1521 29.4712 16.5944L31.5141 14.5422C33.1998 12.8708 33.1998 10.1565 31.5141 8.48504C29.8427 6.79933 27.1284 6.79933 25.457 8.48504L17.9855 15.9565C16.2998 17.6279 16.2998 20.3422 17.9855 22.0136C18.5712 22.5708 18.5712 23.485 17.9855 24.0422ZM22.0141 15.9565C22.5712 15.3993 23.4855 15.3993 24.0427 15.9565C26.8284 18.7422 26.8284 23.2708 24.0427 26.0565L16.557 33.5422C13.7712 36.3279 9.24268 36.3279 6.45696 33.5422C3.67125 30.7565 3.67125 26.2279 6.45696 23.4422L8.50192 21.3972C9.05923 20.8387 9.96375 20.8387 10.5216 21.3966C10.5218 21.3968 10.522 21.397 10.5216 21.3978L10.5228 21.3989C11.0795 21.9575 11.0792 22.8616 10.5222 23.4198L8.48553 25.4565C6.79982 27.1279 6.79982 29.8422 8.48553 31.5136C10.157 33.1993 12.8712 33.1993 14.5427 31.5136L22.0141 24.0422C23.6998 22.3708 23.6998 19.6565 22.0141 17.985C21.4284 17.4279 21.4284 16.5136 22.0141 15.9565Z" fill="#5159F6"/>
</svg>
