<svg width="24" height="24" viewBox="0 0 24 24" fill="none" xmlns="http://www.w3.org/2000/svg">
<path d="M10.5712 4.94994C8.80387 2.83846 6.19924 2.73722 4.77726 4.11986L4.64249 4.25853C3.23671 5.80541 2.90152 7.77829 3.44913 9.9099C3.99856 12.0481 5.43713 14.3383 7.56534 16.4763L7.95792 16.8611C9.93478 18.7418 12.0988 20.0267 14.1278 20.5447C16.2888 21.0962 18.2808 20.7763 19.7558 19.404L19.8984 19.2634C21.3136 17.7779 21.0686 15.2517 19.1142 13.5095L18.9316 13.3533C17.0716 11.8474 14.3844 11.8546 12.7558 13.321L12.5409 13.5212L12.3554 13.365C12.1642 13.2021 11.9167 12.9763 11.62 12.6814L11.6181 12.6794L11.3212 12.3777L11.3183 12.3747L11.0116 12.0486L11.0097 12.0466C10.9166 11.9447 10.8331 11.8507 10.7597 11.7654L10.7587 11.7634L10.6357 11.6169L10.5 11.5L10.5722 11.4275L10.6415 11.3523L10.7509 11.2322C12.1329 9.64405 12.1499 7.0138 10.7196 5.13646L10.5712 4.94994ZM5.80069 5.07884C6.48347 4.49562 8.09513 4.16896 9.49991 5.8474L9.61124 5.98802C10.7272 7.45375 10.5853 9.43289 9.58683 10.4363L9.58194 10.4411L9.43448 10.5798L9.43058 10.5837C9.2612 10.7361 9.12741 10.8437 9.03214 10.9704C8.94683 11.0839 8.90275 11.201 8.92179 11.363C8.94232 11.5376 9.03843 11.7823 9.28312 12.1365C9.52626 12.4884 9.90585 12.9332 10.4706 13.5076L10.9023 13.9333C11.3083 14.3196 11.641 14.5923 11.9169 14.7781C12.2866 15.027 12.5366 15.1075 12.7128 15.1111C12.8786 15.1144 13.0069 15.0502 13.1405 14.9333C13.2093 14.8732 13.2771 14.8015 13.3505 14.7195C13.4213 14.6403 13.5011 14.5474 13.5839 14.4607L13.5868 14.4577L13.6913 14.3591C14.8036 13.3624 16.8063 13.325 18.1845 14.5535L18.3261 14.6843C19.6448 15.9585 19.6141 17.4325 18.9501 18.2263L18.8036 18.3806C17.6224 19.4795 15.9203 19.6276 14.1054 19.0769C12.2888 18.5256 10.3236 17.2671 8.55558 15.491C6.78978 13.717 5.50331 11.787 4.93741 9.98314C4.37073 8.1768 4.52176 6.4707 5.67765 5.19896L5.80069 5.07884Z" fill="#17191C"/>
</svg>
