<svg width="24" height="24" viewBox="0 0 24 24" fill="none" xmlns="http://www.w3.org/2000/svg">
<path fill-rule="evenodd" clip-rule="evenodd" d="M13.0686 4.7204C11.6091 4.42961 10.0961 4.57824 8.72105 5.14748C7.34599 5.71672 6.17066 6.68099 5.34372 7.91832C4.51678 9.15565 4.07539 10.6104 4.07539 12.0987C4.07539 13.5869 4.51678 15.0417 5.34372 16.279C6.17066 17.5163 7.34599 18.4806 8.72105 19.0499C10.0961 19.6191 11.6091 19.7677 13.0686 19.4769C14.5282 19.1862 15.8687 18.469 16.9206 17.4163C17.3257 17.0109 17.9827 17.0106 18.3881 17.4157C18.7935 17.8207 18.7938 18.4778 18.3887 18.8832C17.0466 20.2264 15.3363 21.1413 13.4742 21.5123C11.612 21.8833 9.68161 21.6937 7.92723 20.9674C6.17284 20.2412 4.67327 19.0109 3.61821 17.4322C2.56315 15.8536 2 13.9974 2 12.0987C2 10.1999 2.56315 8.34379 3.61821 6.76512C4.67327 5.18646 6.17284 3.95618 7.92723 3.22991C9.68161 2.50364 11.612 2.31401 13.4742 2.68501C15.3361 3.05596 17.0462 3.97072 18.3882 5.31359C18.388 5.3134 18.3883 5.31378 18.3882 5.31359L19.9246 6.84553V4.67592C19.9246 4.10282 20.3892 3.63822 20.9623 3.63822C21.5354 3.63822 22 4.10282 22 4.67592V9.34554C22 9.91864 21.5354 10.3832 20.9623 10.3832H16.2927C15.7196 10.3832 15.255 9.91864 15.255 9.34554C15.255 8.77244 15.7196 8.30785 16.2927 8.30785H18.4519L16.9206 6.78108C15.8687 5.72832 14.5282 5.01118 13.0686 4.7204Z" fill="#5159F6"/>
</svg>
