<svg width="24" height="24" viewBox="0 0 24 24" fill="none" xmlns="http://www.w3.org/2000/svg">
<path d="M21.7998 11.7061C21.7996 6.89772 17.3001 3.19922 12.0156 3.19922C8.53695 3.19926 5.44046 4.781 3.69824 7.2207L3.53418 7.45996C3.29016 7.82816 3.39066 8.32422 3.75879 8.56836L3.8291 8.61035C4.18793 8.79917 4.63825 8.68891 4.86719 8.34375L5.00098 8.15039C6.41721 6.16834 9.00591 4.79985 12.0156 4.7998C16.6556 4.7998 20.2 8.00287 20.2002 11.7061C20.2002 15.4094 16.6557 18.6133 12.0156 18.6133C10.9802 18.6133 9.99219 18.451 9.08398 18.1562L8.69922 18.0215C8.42302 17.918 8.11623 17.976 7.89746 18.1641L7.80957 18.252C7.10996 19.0745 5.96037 19.638 4.23145 19.834C4.19577 19.838 4.16082 19.8229 4.13965 19.7939C4.11847 19.7649 4.11408 19.7261 4.12891 19.6934C4.68849 18.4558 5.21972 17.17 5.21973 15.8145C5.21973 15.6856 5.18766 15.5596 5.12891 15.4463L5.06152 15.3369C4.98495 15.2339 4.91177 15.129 4.8418 15.0225L4.6416 14.6982C4.435 14.3393 3.99212 14.2006 3.62207 14.3662L3.54883 14.4043C3.16629 14.6248 3.03469 15.1133 3.25488 15.4961L3.41797 15.7666C3.47403 15.8557 3.53127 15.9443 3.59082 16.0312L3.60547 16.0615C3.60833 16.0722 3.60922 16.0835 3.6084 16.0947C3.50638 17.433 2.82603 18.676 2.30273 19.8467C1.94453 20.6428 2.56213 21.5324 3.41602 21.499L3.82031 21.4775C5.81913 21.3426 7.45315 20.7944 8.60059 19.7344L8.64648 19.71C8.6633 19.7062 8.68123 19.7066 8.69824 19.7119C9.736 20.0366 10.8533 20.2129 12.0156 20.2129C17.3002 20.2129 21.7998 16.5146 21.7998 11.7061ZM2.09961 11.5C2.09982 11.9416 2.45869 12.2998 2.90039 12.2998H11.9268C11.9672 12.2998 12.004 12.324 12.0195 12.3613C12.035 12.3987 12.0266 12.4421 11.998 12.4707L10.9346 13.5342C10.6222 13.8466 10.6222 14.3526 10.9346 14.665L10.9951 14.7197C11.3093 14.9762 11.7725 14.958 12.0654 14.665L14.666 12.0654L14.7207 12.0049C14.9599 11.7117 14.9597 11.2884 14.7207 10.9951L14.666 10.9336L12.0654 8.33398C11.7725 8.04114 11.3093 8.02295 10.9951 8.2793L10.9346 8.33398C10.6222 8.64638 10.6222 9.15242 10.9346 9.46484L11.998 10.5293L12.0156 10.5527C12.0293 10.5786 12.0311 10.6097 12.0195 10.6377C12.0041 10.6751 11.9672 10.6992 11.9268 10.6992H2.90039C2.45856 10.6992 2.09961 11.0582 2.09961 11.5Z" fill="#17191C"/>
</svg>
