<svg width="19" height="21" viewBox="0 0 19 21" fill="none" xmlns="http://www.w3.org/2000/svg">
<path d="M2.33333 7C3.622 7 4.66667 8.04467 4.66667 9.33333V18.6667C4.66667 19.9553 3.622 21 2.33333 21C1.04467 21 0 19.9553 0 18.6667V9.33333C0 8.04467 1.04467 7 2.33333 7ZM16.3333 10.5C17.622 10.5 18.6667 11.5447 18.6667 12.8333V18.6667C18.6667 19.9553 17.622 21 16.3333 21C15.0447 21 14 19.9553 14 18.6667V12.8333C14 11.5447 15.0447 10.5 16.3333 10.5ZM9.33333 0C10.622 0 11.6667 1.04467 11.6667 2.33333V18.6667C11.6667 19.9553 10.622 21 9.33333 21C8.04467 21 7 19.9553 7 18.6667V2.33333C7 1.04467 8.04467 0 9.33333 0Z" fill="#5159F6"/>
</svg>
