<svg width="15" height="15" viewBox="0 0 15 15" fill="none" xmlns="http://www.w3.org/2000/svg">
<path d="M7.46672 3.46745V7.46745L10.1334 8.80078M7.46672 0.800781C8.76014 0.800546 10.0257 1.17657 11.1092 1.88302C12.1926 2.58947 13.0472 3.59584 13.5687 4.77947C14.0902 5.96311 14.2561 7.27288 14.0463 8.54917C13.8364 9.82546 13.2598 11.0131 12.3867 11.9674M1.13338 5.38411C0.920949 6.02989 0.808538 6.70435 0.800049 7.38411M1.35343 10.1341C1.72777 10.9953 2.27982 11.7678 2.97343 12.4008M2.55737 2.9574C2.7434 2.75489 2.94178 2.56408 3.15137 2.38607M5.22941 13.7475C6.89188 14.3397 8.72134 14.2486 10.3167 13.4941" stroke="white" stroke-width="1.6" stroke-linecap="round" stroke-linejoin="round"/>
</svg>
