<svg width="24" height="24" viewBox="0 0 24 24" fill="none" xmlns="http://www.w3.org/2000/svg">
<path d="M12 1C18.0751 1 23 5.92487 23 12C23 18.0751 18.0751 23 12 23C5.92487 23 1 18.0751 1 12C1 5.92487 5.92487 1 12 1Z" fill="#5159F6" stroke="transparent" stroke-width="2"/>
<g clip-path="url(#clip0_14986_70035)">
<path d="M11.9999 8.00065V12.0007L14.6666 13.334M11.9999 5.33398C13.2933 5.33375 14.5589 5.70977 15.6424 6.41622C16.7258 7.12267 17.5804 8.12904 18.1019 9.31268C18.6234 10.4963 18.7893 11.8061 18.5795 13.0824C18.3696 14.3587 17.793 15.5463 16.9199 16.5007M5.66659 9.91732C5.45415 10.5631 5.34174 11.2376 5.33325 11.9173M5.88664 14.6673C6.26097 15.5285 6.81303 16.301 7.50664 16.934M7.09058 7.4906C7.2766 7.28809 7.47498 7.09728 7.68458 6.91927M9.76261 18.2807C11.4251 18.8729 13.2545 18.7818 14.8499 18.0273" stroke="white" stroke-width="1.6" stroke-linecap="round" stroke-linejoin="round"/>
</g>
<defs>
<clipPath id="clip0_14986_70035">
<rect width="16" height="16" fill="white" transform="translate(4 4)"/>
</clipPath>
</defs>
</svg>
