<svg width="28" height="28" viewBox="0 0 28 28" fill="none" xmlns="http://www.w3.org/2000/svg">
<path fill-rule="evenodd" clip-rule="evenodd" d="M11.7474 2.66901C12.4768 2.52471 13.2302 2.44922 14.0002 2.44922C14.7702 2.44922 15.5235 2.52471 16.253 2.66901C16.8219 2.78154 17.1918 3.33393 17.0793 3.90281C16.9668 4.47168 16.4144 4.84162 15.8455 4.72909C15.2495 4.61119 14.6326 4.54922 14.0002 4.54922C13.3678 4.54922 12.7509 4.6112 12.1549 4.72909C11.586 4.84162 11.0336 4.47168 10.9211 3.90281C10.8086 3.33393 11.1785 2.78154 11.7474 2.66901ZM9.03877 4.68363C9.36138 5.16551 9.23227 5.81767 8.75039 6.14028C8.23498 6.48534 7.75525 6.87985 7.31804 7.31706C6.88083 7.75427 6.48631 8.23401 6.14126 8.74941C5.81865 9.23129 5.16649 9.36041 4.68461 9.0378C4.20273 8.71519 4.07361 8.06302 4.39622 7.58115C4.81776 6.95149 5.29948 6.36577 5.83311 5.83214C6.36675 5.2985 6.95247 4.81679 7.58212 4.39525C8.064 4.07264 8.71617 4.20175 9.03877 4.68363ZM18.9616 4.68363C19.2842 4.20175 19.9364 4.07264 20.4183 4.39525C21.0479 4.81679 21.6336 5.2985 22.1673 5.83214C22.7009 6.36577 23.1826 6.95149 23.6042 7.58115C23.9268 8.06302 23.7977 8.71519 23.3158 9.0378C22.8339 9.36041 22.1817 9.23129 21.8591 8.74941C21.5141 8.23401 21.1196 7.75427 20.6824 7.31706C20.2451 6.87985 19.7654 6.48534 19.25 6.14028C18.7681 5.81768 18.639 5.16551 18.9616 4.68363ZM24.0966 10.9201C24.6655 10.8076 25.2179 11.1775 25.3304 11.7464C25.4747 12.4759 25.5502 13.2292 25.5502 13.9992C25.5502 14.7692 25.4747 15.5226 25.3304 16.252C25.2179 16.8209 24.6655 17.1908 24.0966 17.0783C23.5277 16.9658 23.1578 16.4134 23.2703 15.8445C23.3882 15.2485 23.4502 14.6316 23.4502 13.9992C23.4502 13.3668 23.3882 12.7499 23.2703 12.1539C23.1578 11.585 23.5277 11.0327 24.0966 10.9201ZM3.90378 10.9201C4.47266 11.0327 4.8426 11.585 4.73006 12.1539C4.61217 12.7499 4.5502 13.3668 4.5502 13.9992C4.5502 14.6316 4.61217 15.2485 4.73006 15.8445C4.8426 16.4134 4.47266 16.9658 3.90378 17.0783C3.33491 17.1908 2.78252 16.8209 2.66998 16.252C2.52569 15.5226 2.4502 14.7692 2.4502 13.9992C2.4502 13.2292 2.52569 12.4759 2.66998 11.7464C2.78252 11.1775 3.33491 10.8076 3.90378 10.9201ZM4.68461 18.9606C5.16649 18.638 5.81865 18.7671 6.14126 19.249C6.48631 19.7644 6.88082 20.2442 7.31804 20.6814C7.75525 21.1186 8.23498 21.5131 8.75039 21.8582C9.23227 22.1808 9.36138 22.8329 9.03877 23.3148C8.71617 23.7967 8.064 23.9258 7.58212 23.6032C6.95247 23.1817 6.36675 22.6999 5.83311 22.1663C5.29948 21.6327 4.81776 21.0469 4.39622 20.4173C4.07361 19.9354 4.20273 19.2832 4.68461 18.9606ZM23.3158 18.9606C23.7977 19.2832 23.9268 19.9354 23.6042 20.4173C23.1826 21.0469 22.7009 21.6327 22.1673 22.1663C21.6336 22.6999 21.0479 23.1817 20.4183 23.6032C19.9364 23.9258 19.2842 23.7967 18.9616 23.3148C18.639 22.8329 18.7681 22.1808 19.25 21.8582C19.7654 21.5131 20.2451 21.1186 20.6824 20.6814C21.1196 20.2442 21.5141 19.7644 21.8591 19.249C22.1817 18.7671 22.8339 18.638 23.3158 18.9606ZM10.9211 24.0956C11.0336 23.5268 11.586 23.1568 12.1549 23.2693C12.7509 23.3872 13.3678 23.4492 14.0002 23.4492C14.6326 23.4492 15.2495 23.3872 15.8455 23.2693C16.4144 23.1568 16.9668 23.5268 17.0793 24.0956C17.1918 24.6645 16.8219 25.2169 16.253 25.3294C15.5235 25.4737 14.7702 25.5492 14.0002 25.5492C13.2302 25.5492 12.4768 25.4737 11.7474 25.3294C11.1785 25.2169 10.8086 24.6645 10.9211 24.0956Z" fill="white"/>
<path d="M13.8992 17.7197C13.8992 18.5013 14.3145 18.9479 15.0535 18.9479C15.7856 18.9479 16.2008 18.5083 16.2008 17.7197V10.4554C16.2008 9.60402 15.6518 9.05273 14.8283 9.05273C14.3567 9.05273 13.857 9.21323 13.3079 9.56215L12.1606 10.3228C11.7453 10.581 11.5342 10.888 11.5342 11.2299C11.5342 11.6905 11.872 12.0255 12.3366 12.0255C12.5689 12.0255 12.766 11.9557 13.132 11.7254L13.871 11.2299H13.8992V17.7197Z" fill="white"/>
</svg>
