<svg width="14" height="14" viewBox="0 0 14 14" fill="none" xmlns="http://www.w3.org/2000/svg">
<path d="M5.96667 1.34667V0C4.62667 0.133333 3.40667 0.666667 2.42 1.47333L3.36667 2.42667C4.10667 1.85333 4.99333 1.46667 5.96667 1.34667ZM2.42667 3.36667L1.47333 2.42C0.666667 3.40667 0.133333 4.62667 0 5.96667H1.34667C1.46667 4.99333 1.85333 4.10667 2.42667 3.36667ZM0 7.3C0.133333 8.64 0.666667 9.86 1.47333 10.8467L2.42667 9.89333C1.85333 9.16 1.46667 8.27333 1.34667 7.3H0ZM5.96667 13.2667V11.92C4.99333 11.8 4.10667 11.4133 3.36667 10.84L2.42 11.7933C3.40667 12.6 4.63333 13.1333 5.96667 13.2667ZM7.33333 0C10.6867 0.353333 13.3 3.19333 13.3 6.63333C13.3 10.0733 10.6867 12.9133 7.33333 13.2667V11.92C9.94667 11.5733 11.9667 9.33333 11.9667 6.63333C11.9667 3.93333 9.94667 1.69333 7.33333 1.34667V0Z" fill="#818C99"/>
<path d="M6.57568 8.7592C6.57568 9.20581 6.81298 9.46101 7.2353 9.46101C7.6536 9.46101 7.89091 9.20979 7.89091 8.7592V4.60814C7.89091 4.12166 7.57718 3.80664 7.1066 3.80664C6.83711 3.80664 6.55154 3.89835 6.23782 4.09773L5.58221 4.53238C5.34491 4.67992 5.22424 4.85537 5.22424 5.05076C5.22424 5.31394 5.4173 5.50535 5.68277 5.50535C5.8155 5.50535 5.92811 5.46547 6.13726 5.33388L6.55959 5.05076H6.57568V8.7592Z" fill="#818C99"/>
</svg>
