<svg width="24" height="24" viewBox="0 0 24 24" fill="none" xmlns="http://www.w3.org/2000/svg">
<path d="M7.40042 4.69922C6.27701 4.69922 5.44606 4.69925 4.78908 4.75293C4.21646 4.79972 3.78916 4.88633 3.42677 5.04199L3.27442 5.11328C2.64905 5.43201 2.12578 5.91671 1.76074 6.51172L1.61426 6.77344C1.41304 7.16836 1.30739 7.63347 1.25391 8.28809C1.20023 8.94506 1.2002 9.77601 1.2002 10.8994V13.0986C1.2002 14.222 1.20023 15.053 1.25391 15.71C1.30739 16.3646 1.41304 16.8297 1.61426 17.2246L1.76074 17.4863C2.12578 18.0813 2.64905 18.566 3.27442 18.8848L3.42677 18.9561C3.78916 19.1117 4.21646 19.1983 4.78908 19.2451C5.44606 19.2988 6.27701 19.2988 7.40042 19.2988H10.5997C11.7231 19.2988 12.554 19.2988 13.211 19.2451C13.8656 19.1916 14.3307 19.086 14.7257 18.8848L14.9874 18.7383C15.5824 18.3732 16.0671 17.85 16.3858 17.2246L16.4893 16.9941C16.5832 16.7551 16.6491 16.4867 16.6954 16.168L16.7413 15.8564L17.004 16.0293L18.0714 16.7334L18.6446 17.1094C18.8114 17.2176 18.9556 17.3096 19.0831 17.3867C19.3387 17.5414 19.5155 17.6298 19.6602 17.6768L19.9044 17.7422C21.1301 18.0027 22.373 17.2679 22.714 16.0322L22.7413 15.9121C22.7654 15.7811 22.7795 15.6146 22.7882 15.3906C22.7997 15.0932 22.7999 14.7078 22.7999 14.1865V10.167C22.7999 9.5825 22.8001 9.14958 22.7872 8.81641C22.7775 8.56555 22.7605 8.37917 22.7335 8.2334L22.7032 8.09961C22.3196 6.73547 20.9248 5.94676 19.5811 6.27832L19.3136 6.35937C19.1552 6.41685 18.962 6.52366 18.6827 6.70801C18.5436 6.79979 18.3861 6.90865 18.2042 7.03711L17.5772 7.48437L16.7364 8.08789L16.6856 7.7666C16.6391 7.4704 16.5744 7.21828 16.4845 6.99219L16.3858 6.77344C16.0671 6.14806 15.5824 5.6248 14.9874 5.25977L14.7257 5.11328C14.3307 4.91206 13.8656 4.80642 13.211 4.75293C12.554 4.69925 11.7231 4.69922 10.5997 4.69922H7.40042ZM10.5997 6.09863C11.7459 6.09863 12.51 6.10051 13.0967 6.14844L13.4688 6.18945C13.789 6.23603 13.9664 6.29741 14.0899 6.36035L14.2549 6.45312C14.6309 6.6837 14.9374 7.01408 15.1387 7.40918L15.2003 7.55371C15.261 7.72297 15.3158 7.97597 15.3507 8.40234L15.379 8.87891C15.3995 9.39494 15.4005 10.0398 15.4005 10.8994V13.0986C15.4005 13.9582 15.3995 14.6031 15.379 15.1191L15.3507 15.5957C15.3159 16.0213 15.2609 16.2741 15.2003 16.4434L15.1387 16.5889C14.9374 16.984 14.6309 17.3143 14.2549 17.5449L14.0899 17.6377C13.9664 17.7006 13.789 17.762 13.4688 17.8086L13.0967 17.8496C12.51 17.8975 11.7459 17.8994 10.5997 17.8994H7.40042C6.54081 17.8994 5.89594 17.8985 5.3799 17.8779L4.90334 17.8496C4.47696 17.8148 4.22396 17.76 4.0547 17.6992L3.91017 17.6377C3.51507 17.4364 3.18469 17.1298 2.95411 16.7539L2.86134 16.5889C2.7984 16.4653 2.73702 16.288 2.69044 15.9678L2.64942 15.5957C2.6015 15.009 2.59962 14.2449 2.59962 13.0986V10.8994C2.59962 9.75316 2.6015 8.98909 2.64942 8.40234L2.69044 8.03027C2.73702 7.71007 2.7984 7.5327 2.86134 7.40918L2.95411 7.24414C3.18469 6.86821 3.51507 6.56169 3.91017 6.36035L4.0547 6.29883C4.22396 6.23808 4.47696 6.18327 4.90334 6.14844L5.3799 6.12012C5.89594 6.09955 6.54081 6.09863 7.40042 6.09863H10.5997ZM19.7911 7.67578C20.4039 7.45357 21.0725 7.76132 21.3116 8.35059L21.3536 8.47266L21.3556 8.47949L21.3575 8.48828L21.3585 8.49219L21.3624 8.51562C21.3646 8.53074 21.3672 8.55255 21.3702 8.58203C21.3762 8.64122 21.3835 8.73343 21.3888 8.87012L21.3985 9.40723C21.4001 9.6194 21.4005 9.86892 21.4005 10.167V14.1865C21.4005 14.4528 21.3999 14.6745 21.3985 14.8623L21.3897 15.3369C21.3861 15.4319 21.3813 15.538 21.3663 15.6445L21.3644 15.6592L21.3605 15.6729C21.2046 16.2096 20.6385 16.5141 20.1046 16.3486L20.0909 16.3447L20.0782 16.3389C20.0295 16.3157 19.9819 16.2903 19.9366 16.2646L19.8077 16.1885C19.6948 16.1202 19.5647 16.0377 19.4073 15.9355L18.8419 15.5645L17.4854 14.6699C17.4724 14.6613 17.3839 14.6012 17.3009 14.5449C17.2585 14.5162 17.2168 14.4879 17.1856 14.4668C17.17 14.4562 17.1566 14.4476 17.1475 14.4414C17.143 14.4383 17.1392 14.4362 17.1368 14.4346L17.1339 14.4316L17.1241 14.4258L17.1163 14.418C16.9453 14.2721 16.8345 14.0678 16.8067 13.8447L16.8057 13.834V13.8184C16.8057 13.8155 16.8048 13.811 16.8048 13.8057C16.8046 13.7947 16.805 13.7786 16.8048 13.7598C16.8043 13.722 16.8035 13.6714 16.8028 13.6201C16.8015 13.5198 16.7999 13.4129 16.7999 13.3975V10.5479C16.7999 10.5351 16.8016 10.4318 16.8028 10.335C16.8034 10.2859 16.8033 10.2373 16.8038 10.2012C16.804 10.1834 16.8046 10.1686 16.8048 10.1582V10.1309L16.8067 10.1201C16.8323 9.90594 16.9336 9.70804 17.0929 9.5625L17.1007 9.55566L17.1095 9.54883L17.1124 9.54687C17.1146 9.54522 17.118 9.54215 17.1221 9.53906C17.1306 9.53287 17.1428 9.52432 17.1573 9.51367C17.1863 9.49232 17.2253 9.46358 17.2647 9.43457C17.3425 9.37735 17.4258 9.31634 17.4366 9.30859L18.3936 8.62207L19.0118 8.18164C19.1851 8.05931 19.329 7.95955 19.4542 7.87695L19.6163 7.77734C19.6519 7.75572 19.6871 7.73448 19.713 7.71875C19.7259 7.71092 19.7368 7.70375 19.7442 7.69922C19.7478 7.69707 19.7511 7.6955 19.753 7.69434L19.755 7.69336L19.756 7.69238L19.7726 7.68262L19.7911 7.67578Z" fill="#17191C"/>
</svg>
