<svg width="40" height="40" viewBox="0 0 40 40" fill="none" xmlns="http://www.w3.org/2000/svg">
<path fill-rule="evenodd" clip-rule="evenodd" d="M11.4163 11.4289C11.4163 6.69498 15.2567 2.85742 19.994 2.85742C24.7313 2.85742 28.5717 6.69498 28.5717 11.4289V18.5717C28.5717 23.3056 24.7313 27.1431 19.994 27.1431C15.2567 27.1431 11.4163 23.3056 11.4163 18.5717V11.4289ZM19.994 5.71456C16.8358 5.71456 14.2756 8.27294 14.2756 11.4289V18.5717C14.2756 21.7276 16.8358 24.286 19.994 24.286C23.1522 24.286 25.7125 21.7276 25.7125 18.5717V11.4289C25.7125 8.27294 23.1522 5.71456 19.994 5.71456Z" fill="#5159F6"/>
<path d="M32.6978 25.1238C33.0599 24.4227 32.7847 23.561 32.0831 23.1992C31.3815 22.8373 30.5192 23.1123 30.1571 23.8134C29.1953 25.6755 27.7396 27.2375 25.9494 28.3287C24.1591 29.4198 22.103 29.9981 20.006 30.0003C17.909 30.0025 15.8517 29.4285 14.0591 28.3411C12.2666 27.2537 10.8077 25.6947 9.84198 23.8347C9.47838 23.1343 8.61548 22.8611 7.91463 23.2245C7.21377 23.5878 6.94038 24.4501 7.30397 25.1504C8.51109 27.4755 10.3347 29.4242 12.5754 30.7834C14.4026 31.8918 16.4497 32.5734 18.5644 32.7858V37.1431C18.5644 37.9321 19.2045 38.5717 19.994 38.5717C20.7836 38.5717 21.4236 37.9321 21.4236 37.1431V32.7858C23.5484 32.5724 25.6048 31.8853 27.4382 30.7679C29.6761 29.404 31.4956 27.4515 32.6978 25.1238Z" fill="#5159F6"/>
</svg>
