<svg width="24" height="24" viewBox="0 0 24 24" fill="none" xmlns="http://www.w3.org/2000/svg">
<path d="M15.1055 9.4043C15.3788 9.13104 15.8214 9.13097 16.0947 9.4043C16.368 9.67763 16.368 10.1202 16.0947 10.3936L11.4951 14.9941C11.2218 15.2675 10.7783 15.2675 10.5049 14.9941L7.90527 12.3936C7.63199 12.1202 7.63193 11.6776 7.90527 11.4043C8.17861 11.131 8.62116 11.131 8.89453 11.4043L11 13.5088L15.1055 9.4043Z" fill="#17191C"/>
<path fill-rule="evenodd" clip-rule="evenodd" d="M14.5381 3.19922C15.4884 3.19921 16.2451 3.19917 16.8555 3.24902C17.4824 3.30024 18.0173 3.40782 18.5068 3.65723C19.2969 4.05986 19.9392 4.70209 20.3418 5.49219C20.5912 5.98168 20.6988 6.51667 20.75 7.14355C20.7998 7.75395 20.7998 8.51058 20.7998 9.46094V14.5371C20.7998 15.4875 20.7998 16.2441 20.75 16.8545C20.6988 17.4814 20.5912 18.0164 20.3418 18.5059C19.9392 19.296 19.2969 19.9382 18.5068 20.3408C18.0173 20.5902 17.4824 20.6978 16.8555 20.749C16.2451 20.7989 15.4884 20.7988 14.5381 20.7988H9.46191C8.51156 20.7988 7.75493 20.7989 7.14453 20.749C6.51765 20.6978 5.98266 20.5902 5.49316 20.3408C4.70307 19.9382 4.06084 19.296 3.6582 18.5059C3.40879 18.0164 3.30122 17.4814 3.25 16.8545C3.20015 16.2441 3.20019 15.4875 3.2002 14.5371V9.46094C3.20019 8.51058 3.20015 7.75395 3.25 7.14355C3.30122 6.51667 3.40879 5.98168 3.6582 5.49219C4.06084 4.70209 4.70307 4.05986 5.49316 3.65723C5.98266 3.40782 6.51765 3.30024 7.14453 3.24902C7.75493 3.19917 8.51155 3.19921 9.46191 3.19922H14.5381ZM9.5 4.59863C8.50843 4.59863 7.80634 4.59971 7.25781 4.64453C6.71779 4.68868 6.38809 4.77224 6.12891 4.9043C5.60205 5.17274 5.17372 5.60108 4.90527 6.12793C4.77322 6.38712 4.68966 6.71682 4.64551 7.25684C4.60069 7.80537 4.59961 8.50745 4.59961 9.49902V14.499C4.59961 15.4906 4.60069 16.1927 4.64551 16.7412C4.68966 17.2812 4.77322 17.6109 4.90527 17.8701C5.17372 18.397 5.60205 18.8253 6.12891 19.0938C6.38809 19.2258 6.71779 19.3094 7.25781 19.3535C7.80634 19.3983 8.50843 19.3994 9.5 19.3994H14.5C15.4916 19.3994 16.1937 19.3983 16.7422 19.3535C17.2822 19.3094 17.6119 19.2258 17.8711 19.0938C18.3979 18.8253 18.8263 18.397 19.0947 17.8701C19.2268 17.6109 19.3103 17.2812 19.3545 16.7412C19.3993 16.1927 19.4004 15.4906 19.4004 14.499V9.49902C19.4004 8.50745 19.3993 7.80537 19.3545 7.25684C19.3103 6.71682 19.2268 6.38712 19.0947 6.12793C18.8263 5.60108 18.3979 5.17274 17.8711 4.9043C17.6119 4.77224 17.2822 4.68868 16.7422 4.64453C16.1937 4.59971 15.4916 4.59863 14.5 4.59863H9.5Z" fill="#17191C"/>
</svg>
