<svg width="40" height="40" viewBox="0 0 40 40" fill="none" xmlns="http://www.w3.org/2000/svg">
<path fill-rule="evenodd" clip-rule="evenodd" d="M16.7024 2.85742C13.2056 2.85742 11.664 3.16545 10.0993 4.00228C8.70616 4.74734 7.60427 5.84923 6.85921 7.24237C6.02239 8.80709 5.71436 10.3487 5.71436 13.8455V26.1551C5.71436 29.6519 6.02239 31.1935 6.85921 32.7582C7.60427 34.1513 8.70616 35.2532 10.0993 35.9983C11.664 36.8351 13.2056 37.1431 16.7024 37.1431H23.2977C26.7945 37.1431 28.3361 36.8351 29.9008 35.9983C31.294 35.2532 32.3959 34.1513 33.1409 32.7582C33.9778 31.1935 34.2858 29.6519 34.2858 26.1551V17.6557C34.2858 16.5176 34.2461 16.0056 34.1114 15.4212C33.978 14.8424 33.7614 14.3194 33.4464 13.8158C33.1285 13.3073 32.7945 12.9172 31.9897 12.1124L25.0308 5.15353C24.226 4.34875 23.8359 4.01473 23.3274 3.69677C22.8238 3.3818 22.3008 3.16518 21.722 3.03177C21.2335 2.91918 20.7955 2.87299 20.0001 2.86087V2.85742H16.7024ZM16.7024 5.71456C13.3668 5.71456 12.3906 6.01694 11.4467 6.52174C10.5515 7.00052 9.85745 7.69456 9.37868 8.58979C8.87388 9.53369 8.5715 10.5099 8.5715 13.8455V26.1551C8.5715 29.4907 8.87388 30.4669 9.37868 31.4108C9.85745 32.306 10.5515 33 11.4467 33.4788C12.3906 33.9836 13.3668 34.286 16.7024 34.286H23.2977C26.6333 34.286 27.6095 33.9836 28.5534 33.4788C29.4486 33 30.1427 32.306 30.6215 31.4108C31.1263 30.4669 31.4286 29.4907 31.4286 26.1551V17.6557C31.4286 17.4596 31.4276 17.2904 31.4252 17.1425L23.5715 17.1431C21.5991 17.1431 20.0001 15.5442 20.0001 13.5717L20.0022 5.71807C19.9248 5.7168 19.8416 5.71591 19.7517 5.71533L16.7024 5.71456ZM23.0105 7.17383L22.8572 7.02171V13.5717C22.8572 13.9224 23.1099 14.214 23.4431 14.2745L23.5715 14.286L30.1248 14.2889C30.076 14.2396 30.0242 14.1876 29.9694 14.1327L23.0105 7.17383ZM21.4286 22.8574C21.4286 22.0684 22.0682 21.4289 22.8572 21.4289H25.7144C26.5033 21.4289 27.1429 22.0684 27.1429 22.8574C27.1429 23.6464 26.5033 24.286 25.7144 24.286H22.8572C22.0682 24.286 21.4286 23.6464 21.4286 22.8574ZM22.8572 27.1431C22.0682 27.1431 21.4286 27.7827 21.4286 28.5717C21.4286 29.3607 22.0682 30.0003 22.8572 30.0003H25.7144C26.5033 30.0003 27.1429 29.3607 27.1429 28.5717C27.1429 27.7827 26.5033 27.1431 25.7144 27.1431H22.8572ZM12.8572 22.8574C12.8572 22.0684 13.4968 21.4289 14.2858 21.4289H17.1429C17.9319 21.4289 18.5715 22.0684 18.5715 22.8574C18.5715 23.6464 17.9319 24.286 17.1429 24.286H14.2858C13.4968 24.286 12.8572 23.6464 12.8572 22.8574ZM14.2858 27.1431C13.4968 27.1431 12.8572 27.7827 12.8572 28.5717C12.8572 29.3607 13.4968 30.0003 14.2858 30.0003H17.1429C17.9319 30.0003 18.5715 29.3607 18.5715 28.5717C18.5715 27.7827 17.9319 27.1431 17.1429 27.1431H14.2858Z" fill="#5159F6"/>
</svg>
